<?xml version="1.0" encoding="UTF-8" standalone="no"?>
<svg
   xmlns:dc="http://purl.org/dc/elements/1.1/"
   xmlns:cc="http://creativecommons.org/ns#"
   xmlns:rdf="http://www.w3.org/1999/02/22-rdf-syntax-ns#"
   xmlns:svg="http://www.w3.org/2000/svg"
   xmlns="http://www.w3.org/2000/svg"
   xmlns:sodipodi="http://sodipodi.sourceforge.net/DTD/sodipodi-0.dtd"
   xmlns:inkscape="http://www.inkscape.org/namespaces/inkscape"
   version="1.1"
   id="svg2"
   xml:space="preserve"
   width="1122.52"
   height="755.90668"
   viewBox="0 0 1122.52 755.90668"
   sodipodi:docname="18520852.eps"><metadata
     id="metadata8"><rdf:RDF><cc:Work
         rdf:about=""><dc:format>image/svg+xml</dc:format><dc:type
           rdf:resource="http://purl.org/dc/dcmitype/StillImage" /></cc:Work></rdf:RDF></metadata><defs
     id="defs6" /><sodipodi:namedview
     pagecolor="#ffffff"
     bordercolor="#666666"
     borderopacity="1"
     objecttolerance="10"
     gridtolerance="10"
     guidetolerance="10"
     inkscape:pageopacity="0"
     inkscape:pageshadow="2"
     inkscape:window-width="640"
     inkscape:window-height="480"
     id="namedview4" /><g
     id="g10"
     inkscape:groupmode="layer"
     inkscape:label="ink_ext_XXXXXX"
     transform="matrix(1.3333333,0,0,-1.3333333,0,755.90667)"><g
       id="g12"
       transform="scale(0.1)"><path
         d="M 8418.9,0 H 0 V 5669.29 H 8418.9 V 0"
         style="fill:#383c41;fill-opacity:1;fill-rule:nonzero;stroke:none"
         id="path14" /><path
         d="m 2695.07,1407.43 h 109.97 c 1.07,-21.58 9.15,-37.76 24.27,-48.53 16.18,-10.78 37.73,-16.16 64.69,-16.16 19.4,0 36.11,3.77 50.14,11.31 12.94,7.53 19.41,17.8 19.41,30.74 0,19.41 -22.65,33.95 -67.93,43.66 -19.41,3.23 -33.97,6.47 -43.68,9.71 -57.15,14 -95.42,30.72 -114.83,50.13 -21.57,19.42 -32.34,45.29 -32.34,77.64 0,40.96 15.63,74.92 46.9,101.89 32.36,24.8 74.4,37.19 126.16,37.19 56.05,0 100.8,-12.39 134.24,-37.19 31.26,-26.97 47.96,-62.02 50.14,-105.12 h -69.55 c -20.5,0 -36.13,9.15 -46.9,27.48 -4.32,4.31 -8.65,8.62 -12.94,12.95 -12.95,9.7 -30.73,14.55 -53.38,14.55 -21.58,0 -37.75,-3.23 -48.51,-9.7 -9.71,-6.47 -14.56,-16.18 -14.56,-29.11 0,-17.27 28.03,-31.82 84.1,-43.67 6.47,-2.18 12.13,-3.8 16.98,-4.86 4.85,-1.09 9.43,-1.62 13.75,-1.62 54.99,-14.01 93.24,-30.19 114.83,-48.51 20.47,-19.41 30.74,-45.29 30.74,-77.63 0,-47.47 -17.27,-84.11 -51.77,-109.98 -32.34,-23.73 -80.86,-35.59 -145.56,-35.59 -61.46,0 -107.29,12.39 -137.47,37.2 -31.28,24.8 -46.9,60.9 -46.9,108.37 v 4.85"
         style="fill:#a1a1a1;fill-opacity:1;fill-rule:nonzero;stroke:none"
         id="path16" /><path
         d="m 3486.35,1695.32 v -252.31 c 0,-76.57 -19.97,-126.71 -59.85,-150.41 -39.9,-23.73 -83.57,-35.59 -131,-35.59 -46.37,2.17 -88.71,15.09 -126.96,38.81 -38.29,23.71 -57.42,72.79 -57.42,147.19 v 252.31 h 113.21 v -274.96 c 0,-25.86 7.54,-44.75 22.65,-56.61 15.08,-11.87 32.34,-17.78 51.75,-17.78 19.4,0 36.92,5.91 52.56,17.78 15.61,11.86 23.45,30.75 23.45,56.61 v 219.97 c 0,15.08 5.11,28.02 15.37,38.81 10.24,10.77 23.45,16.18 39.63,16.18 h 56.61"
         style="fill:#a1a1a1;fill-opacity:1;fill-rule:nonzero;stroke:none"
         id="path18" /><path
         d="m 3895.92,1265.1 h -56.61 c -16.18,0 -29.4,5.11 -39.63,15.37 -10.27,10.23 -15.37,23.44 -15.37,39.62 v 219.95 c 0,25.89 -7.84,44.74 -23.45,56.61 -15.64,11.86 -33.16,17.8 -52.56,17.8 -19.41,0 -36.67,-5.94 -51.75,-17.8 -15.11,-11.87 -22.65,-30.72 -22.65,-56.61 V 1265.1 h -113.21 v 252.31 c 0,73.31 19.13,122.36 57.41,147.17 38.26,24.8 80.6,38.26 126.97,40.43 47.43,0 91.09,-12.39 131,-37.19 39.88,-24.82 59.85,-74.96 59.85,-150.41 V 1265.1"
         style="fill:#a1a1a1;fill-opacity:1;fill-rule:nonzero;stroke:none"
         id="path20" /><path
         d="m 4229.48,1397.73 h 80.86 c -11.86,-45.3 -34.52,-79.81 -67.92,-103.52 -33.44,-24.81 -75.49,-37.2 -126.16,-37.2 -61.46,0 -109.44,19.95 -143.95,59.85 -34.51,38.81 -51.75,94.32 -51.75,166.58 0,68.99 16.71,122.92 50.14,161.73 34.5,39.89 82.49,59.84 143.95,59.84 64.69,0 114.83,-19.4 150.41,-58.22 19.4,-23.72 33.42,-51.22 42.06,-82.48 h -113.23 c -5.41,10.77 -10.78,18.85 -16.17,24.26 -14.02,15.09 -33.97,22.64 -59.84,22.64 -23.73,0 -43.14,-7.55 -58.22,-22.64 -19.42,-21.57 -29.12,-57.17 -29.12,-106.75 0,-49.6 9.7,-84.65 29.12,-105.12 13.99,-17.26 35.02,-25.88 63.07,-25.88 18.32,0 33.96,3.76 46.91,11.32 3.23,1.07 6.19,2.96 8.9,5.66 2.68,2.68 5.65,5.66 8.89,8.9 2.14,3.23 6.46,7.53 12.93,12.94 6.47,5.38 16.18,8.09 29.12,8.09"
         style="fill:#a1a1a1;fill-opacity:1;fill-rule:nonzero;stroke:none"
         id="path22" /><path
         d="m 4349.54,1821.46 h 58.22 c 15.1,0 28.03,-5.13 38.82,-15.35 10.77,-10.27 16.17,-22.93 16.17,-38.02 V 1265.1 h -113.21 v 556.36"
         style="fill:#a1a1a1;fill-opacity:1;fill-rule:nonzero;stroke:none"
         id="path24" /><path
         d="m 4629.74,1588.57 c -22.65,-24.82 -32.91,-61.74 -30.74,-110.79 2.15,-49.08 11.32,-83.28 27.5,-102.7 6.47,-8.64 17.78,-15.93 33.96,-21.83 16.17,-5.93 32.61,-6.47 49.33,-1.62 16.7,4.85 31.54,16.98 44.48,36.39 12.93,19.41 19.93,50.66 21.02,93.8 0,38.83 -6.22,67.93 -18.59,87.34 -12.41,19.41 -26.69,31.79 -42.87,37.2 -16.16,5.38 -32.35,5.66 -48.52,0.81 -16.18,-4.85 -28.05,-11.07 -35.57,-18.6 z m -77.64,-284.66 c -22.65,19.41 -38.82,45.55 -48.52,78.45 -9.7,32.87 -14.56,67.12 -14.56,102.7 0,29.11 4.05,58.22 12.13,87.34 8.09,29.11 20.75,53.37 38.01,72.77 28.03,32.35 64.14,51.49 108.36,57.42 44.21,5.91 84.1,2.42 119.68,-10.51 40.97,-16.17 71.17,-44.23 90.58,-84.1 18.31,-35.58 27.48,-77.11 27.48,-124.54 0,-34.51 -3.79,-64.16 -11.3,-88.94 -7.56,-24.83 -17.27,-45.85 -29.13,-63.09 -25.87,-35.59 -58.78,-57.69 -98.65,-66.31 -35.58,-9.71 -71.44,-10.52 -107.55,-2.42 -36.14,8.08 -64.97,21.83 -86.53,41.23"
         style="fill:#a1a1a1;fill-opacity:1;fill-rule:nonzero;stroke:none"
         id="path26" /><path
         d="m 5294.84,1695.32 v -252.31 c 0,-76.57 -19.96,-126.71 -59.83,-150.41 -39.91,-23.73 -83.57,-35.59 -131.01,-35.59 -46.37,2.17 -88.71,15.09 -126.97,38.81 -38.28,23.71 -57.41,72.79 -57.41,147.19 v 252.31 h 113.21 v -274.96 c 0,-25.86 7.54,-44.75 22.65,-56.61 15.08,-11.87 32.34,-17.78 51.76,-17.78 19.39,0 36.91,5.91 52.55,17.78 15.62,11.86 23.45,30.75 23.45,56.61 v 219.97 c 0,15.08 5.11,28.02 15.37,38.81 10.24,10.77 23.46,16.18 39.63,16.18 h 56.6"
         style="fill:#a1a1a1;fill-opacity:1;fill-rule:nonzero;stroke:none"
         id="path28" /><path
         d="m 5429.47,1483.44 c 0,-43.13 8.09,-76.01 24.27,-98.65 16.17,-22.65 39.35,-33.97 69.54,-33.97 29.11,0 51.76,11.32 67.92,33.97 15.1,22.64 22.65,55.52 22.65,98.65 0,38.83 -8.09,69.55 -24.25,92.2 -17.27,21.54 -40.44,32.34 -69.55,32.34 -28.06,0 -50.14,-11.33 -66.31,-33.96 -16.18,-21.59 -24.27,-51.75 -24.27,-90.58 z m 184.38,339.64 h 54.99 c 15.1,0 28.04,-5.67 38.82,-16.97 10.76,-11.33 16.17,-24.02 16.17,-38.02 v -315.37 c 0,-76.57 -22.1,-128.33 -66.31,-155.28 -44.22,-26.96 -92.19,-40.43 -143.94,-40.43 -28.05,0 -55.54,4.6 -82.49,13.75 -26.96,9.15 -48.52,23.98 -64.69,44.48 -31.28,39.87 -46.91,94.33 -46.91,163.35 0,67.93 15.63,122.36 46.91,163.36 32.35,42.05 73.84,63.06 124.54,63.06 26.94,0 50.66,-5.41 71.16,-16.16 21.56,-12.94 38.81,-29.68 51.75,-50.14 v 184.37"
         style="fill:#a1a1a1;fill-opacity:1;fill-rule:nonzero;stroke:none"
         id="path30" /><path
         d="m 3025.84,1064.55 c -7.46,7.04 -17.88,10.56 -31.31,10.56 -9.58,0 -17.99,-2.04 -25.23,-6.08 -7.25,-4.05 -13.26,-9.37 -18.05,-15.97 -4.8,-6.61 -8.42,-14.11 -10.86,-22.52 -2.46,-8.43 -3.68,-16.98 -3.68,-25.72 0,-8.73 1.22,-17.308 3.68,-25.711 2.44,-8.418 6.06,-15.929 10.86,-22.527 4.79,-6.602 10.8,-11.93 18.05,-15.973 7.24,-4.039 15.65,-6.07 25.23,-6.07 6.18,0 12.04,1.172 17.57,3.52 5.54,2.332 10.44,5.589 14.7,9.742 4.25,4.148 7.77,9.097 10.54,14.859 2.77,5.742 4.47,12.02 5.12,18.852 h 20.12 c -2.77,-20.032 -10.11,-35.633 -22.04,-46.821 -11.94,-11.171 -27.27,-16.761 -46.01,-16.761 -12.56,0 -23.69,2.289 -33.38,6.859 -9.69,4.59 -17.84,10.82 -24.44,18.703 -6.6,7.86 -11.61,17.09 -15.01,27.629 -3.41,10.539 -5.12,21.77 -5.12,33.699 0,11.92 1.71,23.17 5.12,33.71 3.4,10.54 8.41,19.74 15.01,27.63 6.6,7.88 14.75,14.16 24.44,18.85 9.69,4.68 20.82,7.02 33.38,7.02 17.68,0 32.64,-4.68 44.89,-14.05 12.25,-9.38 19.54,-23.53 21.88,-42.5 h -20.12 c -2.78,12.35 -7.88,22.05 -15.34,29.07"
         style="fill:#8f8f8f;fill-opacity:1;fill-rule:nonzero;stroke:none"
         id="path32" /><path
         d="m 3109.22,1087.24 v -38.65 h 0.64 c 5.11,13.41 13.05,23.75 23.8,30.99 10.75,7.23 23.59,10.54 38.49,9.91 v -20.14 c -9.15,0.43 -17.46,-0.79 -24.91,-3.67 -7.46,-2.87 -13.9,-6.99 -19.33,-12.3 -5.43,-5.32 -9.64,-11.66 -12.62,-19 -2.98,-7.36 -4.47,-15.39 -4.47,-24.13 v -87.852 h -20.13 v 164.842 h 18.53"
         style="fill:#8f8f8f;fill-opacity:1;fill-rule:nonzero;stroke:none"
         id="path34" /><path
         d="m 3300.1,1038.36 c -2.45,7.02 -5.91,13.26 -10.38,18.69 -4.47,5.44 -9.9,9.8 -16.29,13.1 -6.39,3.3 -13.64,4.96 -21.73,4.96 -8.3,0 -15.65,-1.66 -22.04,-4.96 -6.39,-3.3 -11.82,-7.66 -16.3,-13.1 -4.46,-5.43 -8.04,-11.71 -10.69,-18.85 -2.67,-7.13 -4.43,-14.43 -5.27,-21.87 h 106.69 c -0.22,7.66 -1.55,15.01 -3.99,22.03 z m -99.68,-61.489 c 2.03,-7.781 5.27,-14.762 9.76,-20.93 4.47,-6.179 10.11,-11.289 16.92,-15.332 6.82,-4.039 15.01,-6.07 24.6,-6.07 14.7,0 26.2,3.832 34.51,11.5 8.31,7.672 14.05,17.891 17.25,30.66 h 20.12 c -4.26,-18.738 -12.09,-33.207 -23.48,-43.437 -11.4,-10.231 -27.53,-15.332 -48.4,-15.332 -12.99,0 -24.22,2.289 -33.7,6.859 -9.47,4.59 -17.2,10.871 -23.17,18.859 -5.96,7.981 -10.37,17.254 -13.25,27.793 -2.88,10.539 -4.31,21.661 -4.31,33.379 0,10.86 1.43,21.51 4.31,31.95 2.88,10.43 7.29,19.75 13.25,27.95 5.97,8.2 13.7,14.8 23.17,19.8 9.48,5 20.71,7.51 33.7,7.51 13.2,0 24.49,-2.66 33.86,-7.98 9.37,-5.33 16.98,-12.31 22.84,-20.92 5.86,-8.63 10.07,-18.54 12.62,-29.71 2.56,-11.19 3.63,-22.54 3.2,-34.029 H 3197.4 c 0,-7.25 1,-14.75 3.02,-22.52"
         style="fill:#8f8f8f;fill-opacity:1;fill-rule:nonzero;stroke:none"
         id="path36" /><path
         d="m 3456.17,1012.49 c -1.29,-2.34 -3.74,-4.05 -7.35,-5.11 -3.63,-1.07 -6.82,-1.81 -9.59,-2.24 -8.52,-1.48 -17.3,-2.83 -26.36,-3.99 -9.05,-1.181 -17.3,-2.92 -24.75,-5.279 -7.47,-2.34 -13.58,-5.691 -18.37,-10.062 -4.8,-4.36 -7.19,-10.59 -7.19,-18.68 0,-5.129 1,-9.637 3.03,-13.578 2.02,-3.949 4.74,-7.352 8.15,-10.231 3.4,-2.871 7.34,-5.058 11.82,-6.55 4.48,-1.481 9.05,-2.231 13.73,-2.231 7.67,0 15.03,1.172 22.05,3.52 7.02,2.332 13.15,5.742 18.37,10.211 5.21,4.492 9.37,9.921 12.46,16.3 3.08,6.379 4.63,13.629 4.63,21.731 v 26.189 z m -100.63,49.2 c 3.39,7.02 8.02,12.77 13.88,17.25 5.86,4.47 12.73,7.77 20.62,9.9 7.87,2.13 16.6,3.19 26.19,3.19 7.24,0 14.48,-0.69 21.72,-2.08 7.24,-1.38 13.74,-3.98 19.49,-7.82 5.75,-3.84 10.43,-9.21 14.06,-16.13 3.62,-6.92 5.43,-15.92 5.43,-26.99 v -87.541 c 0,-8.098 3.94,-12.137 11.82,-12.137 2.33,0 4.47,0.43 6.39,1.277 V 923.68 c -2.35,-0.43 -4.43,-0.75 -6.23,-0.95 -1.81,-0.23 -4.11,-0.332 -6.87,-0.332 -5.11,0 -9.21,0.692 -12.3,2.082 -3.09,1.372 -5.49,3.352 -7.19,5.899 -1.71,2.551 -2.82,5.601 -3.36,9.109 -0.53,3.512 -0.8,7.403 -0.8,11.66 h -0.63 c -3.63,-5.328 -7.3,-10.058 -11.02,-14.207 -3.74,-4.152 -7.88,-7.621 -12.46,-10.39 -4.59,-2.77 -9.8,-4.891 -15.66,-6.391 -5.86,-1.488 -12.83,-2.23 -20.92,-2.23 -7.66,0 -14.86,0.91 -21.56,2.718 -6.72,1.793 -12.58,4.684 -17.58,8.614 -5,3.949 -8.94,8.957 -11.82,15.019 -2.87,6.071 -4.31,13.258 -4.31,21.559 0,11.512 2.56,20.5 7.67,26.992 5.11,6.5 11.87,11.458 20.28,14.868 8.41,3.41 17.89,5.8 28.44,7.19 10.54,1.38 21.24,2.71 32.1,3.99 4.26,0.42 8,0.96 11.18,1.59 3.2,0.65 5.86,1.76 7.99,3.36 2.12,1.59 3.78,3.77 4.95,6.54 1.17,2.77 1.76,6.4 1.76,10.87 0,6.82 -1.12,12.41 -3.35,16.78 -2.24,4.36 -5.32,7.82 -9.27,10.37 -3.94,2.56 -8.53,4.32 -13.74,5.27 -5.22,0.96 -10.81,1.45 -16.77,1.45 -12.77,0 -23.22,-3.05 -31.31,-9.11 -8.09,-6.08 -12.35,-15.82 -12.78,-29.23 h -20.12 c 0.64,9.58 2.65,17.88 6.08,24.92"
         style="fill:#8f8f8f;fill-opacity:1;fill-rule:nonzero;stroke:none"
         id="path38" /><path
         d="m 3582.67,1087.24 v -16.92 h -33.55 V 959.141 c 0,-6.61 0.9,-11.77 2.72,-15.493 1.8,-3.738 6.33,-5.816 13.58,-6.238 5.75,0 11.49,0.332 17.25,0.961 v -16.93 c -2.98,0 -5.97,-0.101 -8.94,-0.32 -3,-0.211 -5.97,-0.32 -8.95,-0.32 -13.43,0 -22.8,2.601 -28.11,7.828 -5.33,5.223 -7.88,14.863 -7.68,28.91 v 112.781 h -28.74 v 16.92 h 28.74 v 49.52 h 20.13 v -49.52 h 33.55"
         style="fill:#8f8f8f;fill-opacity:1;fill-rule:nonzero;stroke:none"
         id="path40" /><path
         d="M 3632.18,1087.24 V 922.398 h -20.13 v 164.842 z m 0,63.26 v -32.27 h -20.13 v 32.27 h 20.13"
         style="fill:#8f8f8f;fill-opacity:1;fill-rule:nonzero;stroke:none"
         id="path42" /><path
         d="m 3674.67,1087.24 51.75,-144.709 h 0.65 l 51.1,144.709 h 20.77 l -61.66,-164.842 h -21.4 l -63.57,164.842 h 22.36"
         style="fill:#8f8f8f;fill-opacity:1;fill-rule:nonzero;stroke:none"
         id="path44" /><path
         d="m 3933.27,1038.36 c -2.45,7.02 -5.9,13.26 -10.37,18.69 -4.48,5.44 -9.91,9.8 -16.3,13.1 -6.39,3.3 -13.63,4.96 -21.72,4.96 -8.31,0 -15.66,-1.66 -22.04,-4.96 -6.39,-3.3 -11.82,-7.66 -16.3,-13.1 -4.47,-5.43 -8.04,-11.71 -10.7,-18.85 -2.67,-7.13 -4.42,-14.43 -5.26,-21.87 h 106.69 c -0.22,7.66 -1.55,15.01 -4,22.03 z m -99.67,-61.489 c 2.03,-7.781 5.27,-14.762 9.75,-20.93 4.48,-6.179 10.11,-11.289 16.93,-15.332 6.82,-4.039 15.01,-6.07 24.6,-6.07 14.7,0 26.19,3.832 34.5,11.5 8.31,7.672 14.05,17.891 17.26,30.66 h 20.12 c -4.26,-18.738 -12.09,-33.207 -23.49,-43.437 -11.39,-10.231 -27.52,-15.332 -48.39,-15.332 -13,0 -24.23,2.289 -33.7,6.859 -9.48,4.59 -17.21,10.871 -23.17,18.859 -5.96,7.981 -10.38,17.254 -13.25,27.793 -2.88,10.539 -4.32,21.661 -4.32,33.379 0,10.86 1.44,21.51 4.32,31.95 2.87,10.43 7.29,19.75 13.25,27.95 5.96,8.2 13.69,14.8 23.17,19.8 9.47,5 20.7,7.51 33.7,7.51 13.2,0 24.49,-2.66 33.86,-7.98 9.37,-5.33 16.98,-12.31 22.84,-20.92 5.86,-8.63 10.07,-18.54 12.62,-29.71 2.56,-11.19 3.63,-22.54 3.2,-34.029 h -126.82 c 0,-7.25 1,-14.75 3.02,-22.52"
         style="fill:#8f8f8f;fill-opacity:1;fill-rule:nonzero;stroke:none"
         id="path46" /><path
         d="m 4174.32,1064.55 c -7.47,7.04 -17.89,10.56 -31.32,10.56 -9.58,0 -17.99,-2.04 -25.23,-6.08 -7.25,-4.05 -13.26,-9.37 -18.05,-15.97 -4.8,-6.61 -8.41,-14.11 -10.86,-22.52 -2.45,-8.43 -3.68,-16.98 -3.68,-25.72 0,-8.73 1.23,-17.308 3.68,-25.711 2.45,-8.418 6.06,-15.929 10.86,-22.527 4.79,-6.602 10.8,-11.93 18.05,-15.973 7.24,-4.039 15.65,-6.07 25.23,-6.07 6.18,0 12.04,1.172 17.58,3.52 5.53,2.332 10.43,5.589 14.69,9.742 4.26,4.148 7.77,9.097 10.54,14.859 2.77,5.742 4.47,12.02 5.12,18.852 h 20.12 c -2.76,-20.032 -10.11,-35.633 -22.04,-46.821 -11.93,-11.171 -27.27,-16.761 -46.01,-16.761 -12.56,0 -23.68,2.289 -33.38,6.859 -9.69,4.59 -17.84,10.82 -24.44,18.703 -6.6,7.86 -11.61,17.09 -15.01,27.629 -3.41,10.539 -5.12,21.77 -5.12,33.699 0,11.92 1.71,23.17 5.12,33.71 3.4,10.54 8.41,19.74 15.01,27.63 6.6,7.88 14.75,14.16 24.44,18.85 9.7,4.68 20.82,7.02 33.38,7.02 17.68,0 32.64,-4.68 44.89,-14.05 12.25,-9.38 19.54,-23.53 21.89,-42.5 h -20.13 c -2.77,12.35 -7.88,22.05 -15.33,29.07"
         style="fill:#8f8f8f;fill-opacity:1;fill-rule:nonzero;stroke:none"
         id="path48" /><path
         d="m 4283.56,1069.03 c -7.23,-4.05 -13.24,-9.37 -18.04,-15.97 -4.79,-6.61 -8.41,-14.11 -10.86,-22.52 -2.45,-8.43 -3.67,-16.98 -3.67,-25.72 0,-8.73 1.22,-17.308 3.67,-25.711 2.45,-8.418 6.07,-15.929 10.86,-22.527 4.8,-6.602 10.81,-11.93 18.04,-15.973 7.24,-4.039 15.68,-6.07 25.24,-6.07 9.59,0 18.01,2.031 25.23,6.07 7.26,4.043 13.27,9.371 18.06,15.973 4.8,6.598 8.41,14.109 10.86,22.527 2.45,8.403 3.67,16.981 3.67,25.711 0,8.74 -1.22,17.29 -3.67,25.72 -2.45,8.41 -6.06,15.91 -10.86,22.52 -4.79,6.6 -10.8,11.92 -18.06,15.97 -7.22,4.04 -15.64,6.08 -25.23,6.08 -9.56,0 -18,-2.04 -25.24,-6.08 z m 58.64,15.98 c 9.68,-4.69 17.84,-10.97 24.42,-18.85 6.61,-7.89 11.62,-17.09 15.02,-27.63 3.42,-10.54 5.11,-21.79 5.11,-33.71 0,-11.929 -1.69,-23.16 -5.11,-33.699 -3.4,-10.539 -8.41,-19.769 -15.02,-27.629 -6.58,-7.883 -14.74,-14.113 -24.42,-18.703 -9.71,-4.57 -20.82,-6.859 -33.4,-6.859 -12.57,0 -23.68,2.289 -33.37,6.859 -9.71,4.59 -17.84,10.82 -24.44,18.703 -6.61,7.86 -11.61,17.09 -15.03,27.629 -3.4,10.539 -5.11,21.77 -5.11,33.699 0,11.92 1.71,23.17 5.11,33.71 3.42,10.54 8.42,19.74 15.03,27.63 6.6,7.88 14.73,14.16 24.44,18.85 9.69,4.68 20.8,7.02 33.37,7.02 12.58,0 23.69,-2.34 33.4,-7.02"
         style="fill:#8f8f8f;fill-opacity:1;fill-rule:nonzero;stroke:none"
         id="path50" /><path
         d="m 4435.3,1087.24 v -27.79 h 0.97 c 5.32,10.23 12.29,18.21 20.92,23.96 8.64,5.74 19.67,8.62 33.06,8.62 10.87,0 20.72,-2.66 29.56,-7.98 8.83,-5.33 14.75,-13.41 17.73,-24.27 4.9,10.86 12.13,18.94 21.72,24.27 9.6,5.32 19.8,7.98 30.67,7.98 36.42,0 54.63,-19.27 54.63,-57.82 V 922.398 h -20.13 v 110.852 c 0,13.63 -2.87,24.02 -8.62,31.16 -5.75,7.13 -15.88,10.7 -30.34,10.7 -8.74,0 -15.97,-1.66 -21.72,-4.96 -5.76,-3.3 -10.33,-7.72 -13.75,-13.25 -3.4,-5.55 -5.8,-11.88 -7.19,-19.01 -1.38,-7.14 -2.08,-14.54 -2.08,-22.21 v -93.282 h -20.13 v 111.812 c 0,5.54 -0.58,10.81 -1.75,15.81 -1.16,5 -3.08,9.37 -5.73,13.11 -2.69,3.72 -6.24,6.65 -10.71,8.78 -4.48,2.13 -9.91,3.2 -16.32,3.2 -8.49,0 -15.91,-1.55 -22.17,-4.64 -6.29,-3.09 -11.4,-7.34 -15.36,-12.77 -3.92,-5.44 -6.85,-11.83 -8.77,-19.17 -1.92,-7.36 -2.87,-15.39 -2.87,-24.12 v -92.012 h -20.12 v 164.842 h 18.5"
         style="fill:#8f8f8f;fill-opacity:1;fill-rule:nonzero;stroke:none"
         id="path52" /><path
         d="m 4811.81,1030.22 c -2.04,8.41 -5.23,15.92 -9.59,22.52 -4.38,6.6 -9.94,11.98 -16.76,16.14 -6.82,4.15 -15.02,6.23 -24.61,6.23 -11.07,0 -20.34,-1.92 -27.78,-5.76 -7.46,-3.83 -13.43,-8.94 -17.91,-15.33 -4.46,-6.39 -7.6,-13.84 -9.41,-22.36 -1.82,-8.52 -2.72,-17.47 -2.72,-26.84 0,-8.519 1.01,-16.988 3.02,-25.398 2.04,-8.41 5.35,-15.922 9.92,-22.524 4.58,-6.597 10.53,-11.988 17.89,-16.128 7.34,-4.161 16.34,-6.231 26.99,-6.231 9.59,0 17.79,2.07 24.61,6.231 6.82,4.14 12.38,9.531 16.76,16.128 4.36,6.602 7.55,14.114 9.59,22.524 2.03,8.41 3.04,16.879 3.04,25.398 0,8.51 -1.01,16.98 -3.04,25.4 z m -110.37,57.02 v -31.3 h 0.64 c 4.67,11.49 12.3,20.39 22.83,26.67 10.54,6.28 22.53,9.42 35.94,9.42 12.57,0 23.48,-2.34 32.74,-7.02 9.27,-4.69 16.99,-11.02 23.16,-19.01 6.19,-7.98 10.77,-17.25 13.75,-27.8 2.98,-10.54 4.46,-21.66 4.46,-33.38 0,-11.718 -1.48,-22.84 -4.46,-33.379 -2.98,-10.539 -7.56,-19.812 -13.75,-27.793 -6.17,-7.988 -13.89,-14.269 -23.16,-18.859 -9.26,-4.57 -20.17,-6.859 -32.74,-6.859 -5.97,0 -11.92,0.742 -17.89,2.23 -5.96,1.5 -11.5,3.731 -16.61,6.711 -5.11,2.988 -9.64,6.719 -13.57,11.188 -3.95,4.472 -6.98,9.683 -9.11,15.652 h -0.64 v -92.012 h -20.13 v 225.541 h 18.54"
         style="fill:#8f8f8f;fill-opacity:1;fill-rule:nonzero;stroke:none"
         id="path54" /><path
         d="m 4981.29,922.398 v 29.704 h -0.65 c -5.32,-11.063 -13.03,-19.532 -23.16,-25.391 -10.12,-5.852 -21.35,-8.781 -33.69,-8.781 -10.44,0 -19.34,1.429 -26.69,4.312 -7.35,2.867 -13.31,6.969 -17.89,12.297 -4.57,5.32 -7.92,11.82 -10.05,19.492 -2.15,7.66 -3.21,16.391 -3.21,26.188 v 107.021 h 20.12 V 979.91 c 0.44,-14.918 3.89,-26.199 10.4,-33.871 6.5,-7.668 17.73,-11.5 33.7,-11.5 8.74,0 16.18,1.859 22.37,5.582 6.17,3.738 11.28,8.68 15.32,14.859 4.04,6.18 7.02,13.258 8.95,21.25 1.91,7.989 2.89,16.141 2.89,24.44 v 86.57 h 20.12 V 922.398 h -18.53"
         style="fill:#8f8f8f;fill-opacity:1;fill-rule:nonzero;stroke:none"
         id="path56" /><path
         d="m 5103.3,1087.24 v -16.92 h -33.52 V 959.141 c 0,-6.61 0.89,-11.77 2.7,-15.493 1.8,-3.738 6.33,-5.816 13.58,-6.238 5.74,0 11.49,0.332 17.24,0.961 v -16.93 c -2.98,0 -5.96,-0.101 -8.93,-0.32 -2.99,-0.211 -5.97,-0.32 -8.95,-0.32 -13.43,0 -22.78,2.601 -28.13,7.828 -5.31,5.223 -7.88,14.863 -7.64,28.91 v 112.781 h -28.75 v 16.92 h 28.75 v 49.52 h 20.13 v -49.52 h 33.52"
         style="fill:#8f8f8f;fill-opacity:1;fill-rule:nonzero;stroke:none"
         id="path58" /><path
         d="M 5152.83,1087.24 V 922.398 h -20.12 v 164.842 z m 0,63.26 v -32.27 h -20.12 v 32.27 h 20.12"
         style="fill:#8f8f8f;fill-opacity:1;fill-rule:nonzero;stroke:none"
         id="path60" /><path
         d="m 5211.27,1087.24 v -28.43 h 0.65 c 3.84,10.01 10.66,18.05 20.45,24.12 9.78,6.07 20.55,9.1 32.26,9.1 11.51,0 21.12,-1.49 28.91,-4.47 7.77,-2.98 14.01,-7.19 18.7,-12.62 4.66,-5.43 7.97,-12.09 9.89,-19.96 1.91,-7.88 2.89,-16.73 2.89,-26.52 V 922.398 h -20.13 v 102.872 c 0,7.03 -0.65,13.58 -1.92,19.64 -1.29,6.07 -3.51,11.35 -6.72,15.83 -3.19,4.47 -7.49,7.97 -12.92,10.53 -5.43,2.55 -12.21,3.84 -20.29,3.84 -8.11,0 -15.3,-1.45 -21.57,-4.33 -6.27,-2.86 -11.62,-6.81 -15.98,-11.8 -4.38,-5.02 -7.77,-10.98 -10.22,-17.9 -2.45,-6.93 -3.79,-14.44 -4,-22.52 v -96.162 h -20.13 v 164.842 h 20.13"
         style="fill:#8f8f8f;fill-opacity:1;fill-rule:nonzero;stroke:none"
         id="path62" /><path
         d="m 5452.17,946.84 c 6.58,3.719 12.13,8.629 16.59,14.699 4.48,6.063 7.83,13.043 10.08,20.922 2.23,7.879 3.35,15.969 3.35,24.279 0,8.09 -0.95,16.18 -2.87,24.28 -1.92,8.09 -5.01,15.43 -9.27,22.04 -4.27,6.6 -9.75,11.92 -16.45,15.97 -6.72,4.04 -14.86,6.08 -24.45,6.08 -9.57,0 -17.77,-1.98 -24.59,-5.92 -6.82,-3.94 -12.45,-9.11 -16.94,-15.5 -4.46,-6.38 -7.72,-13.68 -9.73,-21.88 -2.03,-8.19 -3.05,-16.55 -3.05,-25.07 0,-8.31 1.07,-16.4 3.19,-24.279 2.13,-7.879 5.43,-14.859 9.92,-20.922 4.45,-6.07 10.12,-10.98 16.93,-14.699 6.8,-3.731 14.91,-5.598 24.27,-5.598 8.73,0 16.41,1.867 23.02,5.598 z m 46.15,-43.942 c -2.67,-9.777 -6.86,-18.089 -12.62,-24.906 -5.76,-6.82 -13.27,-12.023 -22.51,-15.652 -9.26,-3.621 -20.61,-5.43 -34.04,-5.43 -8.3,0 -16.41,0.949 -24.27,2.879 -7.88,1.91 -14.97,4.891 -21.26,8.93 -6.29,4.062 -11.48,9.23 -15.64,15.5 -4.16,6.293 -6.54,13.801 -7.19,22.523 h 20.13 c 1.06,-6.172 3.14,-11.344 6.22,-15.5 3.09,-4.14 6.82,-7.492 11.18,-10.062 4.37,-2.551 9.22,-4.41 14.54,-5.578 5.31,-1.172 10.74,-1.75 16.29,-1.75 18.74,0 32.26,5.308 40.58,15.968 8.3,10.649 12.46,25.981 12.46,45.989 v 22.382 h -0.65 c -4.66,-10.23 -11.56,-18.429 -20.59,-24.601 -9.07,-6.18 -19.64,-9.27 -31.8,-9.27 -13.19,0 -24.5,2.18 -33.86,6.551 -9.38,4.359 -17.1,10.371 -23.15,18.051 -6.08,7.66 -10.49,16.66 -13.26,26.988 -2.78,10.332 -4.16,21.352 -4.16,33.07 0,11.28 1.66,21.99 4.97,32.1 3.28,10.1 8.08,18.96 14.36,26.52 6.27,7.55 14.06,13.52 23.32,17.88 9.27,4.37 19.86,6.55 31.78,6.55 6.17,0 11.99,-0.86 17.42,-2.54 5.43,-1.72 10.38,-4.12 14.84,-7.19 4.49,-3.1 8.48,-6.66 12,-10.71 3.5,-4.05 6.21,-8.31 8.13,-12.78 h 0.65 v 28.43 h 20.12 V 935.809 c 0,-12.129 -1.33,-23.098 -3.99,-32.911"
         style="fill:#8f8f8f;fill-opacity:1;fill-rule:nonzero;stroke:none"
         id="path64" /><path
         d="m 3277.78,3535.73 c 24.3,17.31 50.08,32.46 77.22,44.88 75.03,404.4 429.38,710.71 855.49,710.71 427.94,0 783.42,-308.87 856.4,-715.75 27.23,-10.67 53.36,-23.62 78.24,-38.57 l 96.58,65.77 -181.09,45.91 133.86,130.39 -186.32,13.79 109.18,151.62 -185.88,-18.76 81.2,168.28 -179.79,-50.78 50.72,179.84 -168.28,-81.25 18.74,185.92 -151.57,-109.17 -13.85,186.31 -130.32,-133.92 -45.92,181.18 -105.16,-154.48 -76.74,170.38 -76.64,-170.34 -105.19,154.44 -45.9,-181.16 -130.36,133.9 -13.8,-186.33 -151.61,109.19 18.78,-185.92 -168.3,81.23 50.75,-179.82 -179.78,50.78 81.2,-168.28 -185.93,18.76 109.21,-151.62 -186.32,-13.81 133.89,-130.37 -181.15,-45.96 98.44,-66.99"
         style="fill:#ffcb05;fill-opacity:1;fill-rule:nonzero;stroke:none"
         id="path66" /><path
         d="m 3560.38,3622.54 c 307.56,334.5 843.44,311.71 1121.89,-50.35 88.3,36.51 183.52,48.25 280.73,32.08 -82.59,338.87 -388.55,591.24 -752.51,591.24 -360.4,0 -664.12,-247.49 -750.14,-581.44 35.93,6.93 70.07,9.42 100.03,8.47"
         style="fill:#ffcb05;fill-opacity:1;fill-rule:nonzero;stroke:none"
         id="path68" /><path
         d="m 5398.81,2799.98 c -1.06,2.87 -2.27,5.75 -3.4,8.63 -0.2,0.47 -0.4,0.92 -0.61,1.38 -8.58,21.38 -19.42,43.15 -33.21,65.43 -19.56,31.6 -47.15,58.36 -79,80.49 -62.25,48.63 -140.55,77.69 -225.68,77.69 -8.83,0 -17.56,-0.41 -26.24,-1.03 -15.04,-0.24 -29.32,-1.44 -42.4,-3.7 109.15,60.1 294.23,9.49 311.98,-14.6 6.29,35.32 8.15,71.33 5.14,108.88 v -0.02 c -24.98,312.45 -376.08,502.4 -653.9,327.77 -62.76,-39.44 -115.27,-94.78 -150.78,-161.64 -201.84,135.32 -476.75,15.59 -514.97,-224.76 -0.99,-6.31 -1.34,-12.52 -2.01,-18.84 -29.27,283.42 284.4,467.65 516.98,311.74 29.49,55.57 70.83,103.06 119.91,140.21 -116.17,162.04 -305.76,267.82 -520.3,267.82 -202.32,0 -382.58,-93.96 -499.9,-240.45 -17.19,2.4 -34.74,3.75 -52.58,3.75 -150.49,0 -279.76,-89.46 -338.43,-217.96 128.35,18.52 255.68,-15.99 355.63,-90.05 -116.63,55.29 -254.81,62.72 -381.24,13.41 -320.51,-124.84 -410.9,-537.1 -171.87,-784.12 104.69,-108.06 258.21,-166.16 417.43,-142.18 11.16,136.41 83.09,255.61 188.8,330.36 -77,-84.32 -120.33,-195.49 -117.23,-314.26 7.51,-307.79 312.78,-508.57 587.15,-417.09 0.03,0 0.05,0 0.05,0 92.96,27.88 195,101.87 254.84,208.74 219.84,-163.31 532.05,-92.18 661.72,144.81 -52.11,10.18 -108.49,37.65 -151.36,100.86 58.26,-38.91 128.26,-61.63 203.58,-61.63 202.69,0 367,164.31 367,366.99 0,47.06 -8.96,92.03 -25.1,133.37"
         style="fill:#f5f5f5;fill-opacity:1;fill-rule:nonzero;stroke:none"
         id="path70" /></g></g></svg>
